<svg width="215" height="44" viewBox="0 0 215 44" fill="none" xmlns="http://www.w3.org/2000/svg">
<path d="M0 24.1819C0 20.1302 6.75652 15.542 17.1329 15.542C24.0207 15.542 29.1656 17.5022 33.6541 19.3712C39.8883 12.5574 44.335 4.36272 51.5272 1.2469C53.1388 0.579223 55.3621 0 57.457 0C60.4651 0 63.1661 1.20125 63.1661 4.85349C63.1661 8.50574 61.7276 9.66419 60.6383 9.66419C59.9847 9.66419 59.4177 9.17341 59.4177 8.50574C59.4177 6.54551 61.9902 6.05759 62.4259 5.52117C62.5572 5.34426 62.6438 5.0304 62.6438 4.71939C62.6438 1.42381 60.1579 0.399464 57.4123 0.399464C55.3202 0.399464 53.0969 1.02434 51.6585 1.69202C44.726 4.94195 43.768 14.0726 38.1454 21.1516C40.4134 21.9991 42.5921 22.5326 44.902 22.5326C45.9913 22.5326 47.0806 22.4442 48.2593 22.1332V23.4257C47.3878 23.6026 46.5164 23.6939 45.6868 23.6939C42.9831 23.6939 40.4134 22.8465 37.665 21.7337C33.5675 26.5872 27.0289 30.3279 14.5605 30.3279C4.31535 30.3279 0 27.4346 0 24.1819ZM33.1737 19.8619C28.6824 17.9474 23.4956 16.0756 16.6525 16.0756C6.66994 16.0756 0.698276 20.4383 0.698276 24.179C0.698276 27.0723 4.18687 29.5661 12.0746 29.5661C21.8393 29.5661 28.1154 25.2034 33.1737 19.8591V19.8619Z" fill="#2D2D2D"/>
<path d="M41.0193 27.9688C41.0193 24.3622 47.3847 16.4785 55.8395 16.4785C56.669 16.4785 57.0154 16.7467 57.0154 17.1918C57.0154 18.6157 53.0045 21.7343 47.206 22.6246C44.8514 24.9843 42.9772 27.4353 42.9772 28.548C42.9772 29.4839 43.7174 29.7949 44.7201 29.7949C46.1139 29.7949 48.0327 29.1729 49.1667 28.5024C51.2588 27.3011 54.5295 24.9843 58.2332 22.4905L58.4063 22.8471C54.8759 25.2068 51.7811 27.5237 49.3399 28.8591C47.7702 29.7065 45.7228 30.3285 44.0665 30.3285C42.4102 30.3285 41.0137 29.6608 41.0137 27.9688H41.0193ZM56.5824 17.2375C56.5824 16.9693 56.3646 16.838 55.8423 16.838C54.01 16.838 50.4795 19.4659 47.5607 22.2707C52.1805 21.5574 56.5852 18.3959 56.5852 17.2375H56.5824Z" fill="#2D2D2D"/>
<path d="M61.7691 27.4339C61.7691 26.7206 61.987 25.9188 62.2914 25.1627C59.895 26.9431 56.1438 29.6167 54.359 29.6167C53.2697 29.6167 52.834 29.0375 52.834 28.3241C52.834 27.4339 53.5323 26.4552 54.6663 26.4552C55.102 26.4552 55.3199 26.7234 55.3199 27.0772C55.3199 27.7449 54.5797 28.6352 53.4457 28.6352H53.2278C53.401 29.0803 53.7501 29.2572 54.2752 29.2572C55.9315 29.2572 59.0263 27.2542 62.6015 24.5806C64.4756 20.974 68.967 17.4559 68.967 16.6541C68.967 16.4772 68.9223 16.2974 68.6178 16.2974C67.0928 16.2974 61.8166 20.4832 60.4648 21.4191L58.0236 23.1111L57.7191 22.8429L60.3782 21.0168C63.9952 18.4773 67.5704 15.8066 69.0535 15.8066C69.6624 15.8066 69.8831 16.2061 69.8831 16.6969C69.8831 17.8097 69.534 18.8797 69.0535 19.9468C71.1456 18.3889 73.3689 16.8738 75.5056 16.8738C76.6815 16.8738 77.2932 17.7212 77.2932 18.5201C77.2932 19.1878 76.8575 19.767 75.9413 19.767C75.3743 19.767 75.0252 19.3219 75.0252 18.8312C75.0252 18.3404 75.3297 17.8068 75.9832 17.4958C75.8967 17.2732 75.6341 17.1848 75.3297 17.1848C73.2823 17.1848 70.6205 19.0994 68.791 20.5688C66.7409 24.398 62.6434 27.7392 62.6434 28.4497C62.6434 28.9833 63.2104 29.3399 64.1684 29.3399C65.2158 29.3399 66.6962 28.8948 68.3525 27.782L76.1983 22.4834L76.3715 22.8401C73.3633 24.8431 70.7043 26.8033 68.481 28.1843C67.0872 29.0318 65.2996 29.7879 63.9478 29.7879C62.6825 29.7879 61.7691 29.1659 61.7691 27.4282V27.4339Z" fill="#2D2D2D"/>
<path d="M93.288 10.1096H97.7793L96.8632 10.7772H92.5031C87.5761 15.0087 81.6491 20.3501 77.5935 24.0024C76.5042 24.981 74.1496 27.3864 74.1496 28.5448C74.1496 29.0784 74.4541 29.2582 74.9345 29.2582C75.9819 29.2582 77.8114 28.3223 78.6409 27.7887C80.6883 26.4534 83.4367 24.5388 86.4868 22.4901L86.6599 22.8468C83.6518 24.8498 81.0374 26.81 78.7694 28.191C77.4623 28.9928 75.7166 29.7946 74.4988 29.7946C73.6273 29.7946 73.0156 29.3951 73.0156 28.3251C73.0156 26.5447 75.1523 23.3832 76.4148 22.0906C80.5989 17.8592 84.9589 14.1185 88.7073 10.7801H84.0875L84.917 10.1124H89.4949C91.587 8.24348 93.5058 6.50581 95.0756 4.90225C96.514 4.90225 98.3882 4.76814 99.4356 4.67969L99.5669 4.9479C98.0837 6.06069 95.8604 7.88682 93.2908 10.1124L93.288 10.1096Z" fill="#2D2D2D"/>
<path d="M54.4453 40.5247C54.4453 37.5401 60.9393 33.6682 71.4888 33.6682C74.888 33.6682 78.6392 34.0676 82.7367 35.0035C85.9627 32.3328 88.9709 29.3026 91.8031 26.2296L88.8396 28.1898C87.7922 28.8575 85.6583 30.0159 84.1304 30.0159C83.2143 30.0159 82.5188 29.5708 82.5188 28.3239C82.5188 27.2539 83.6528 24.7173 91.8897 16.1659C93.3281 16.1659 94.9844 16.0318 95.8559 15.9434L95.9872 16.2116C93.1969 18.3059 84.0439 27.077 84.0439 28.6349C84.0439 29.2569 84.393 29.4824 84.8734 29.4824C85.8761 29.4824 87.619 28.5037 88.7083 27.7903L92.979 24.8971C95.5514 22.0466 97.906 19.1961 100.04 16.6139C100.127 16.4798 100.434 16.3029 100.87 16.3029C101.828 16.3029 102.962 16.2572 104.227 16.0803L104.313 16.2144C103.746 16.6139 102.788 17.4157 102.221 18.0833C98.7328 21.9582 94.9426 26.0099 90.9317 29.7506C91.0182 29.7962 91.1048 29.7962 91.2361 29.7962C92.8477 29.7962 97.3837 26.5006 103.311 22.4917L103.484 22.8484C97.7301 26.766 92.9343 30.3298 90.6691 30.3298C90.5378 30.3298 90.4065 30.3298 90.32 30.2841C88.3592 32.0646 86.3091 33.8023 84.2617 35.3602C86.485 35.9394 88.7949 36.6527 91.1942 37.5858L89.9289 38.7442C87.6609 37.6314 85.4376 36.784 83.3037 36.0735C76.8963 40.7501 70.0085 44 62.9894 44C57.0597 44 54.4453 42.4421 54.4453 40.5275V40.5247ZM81.9518 35.6712C77.9856 34.5584 74.2792 34.1133 70.9218 34.1133C61.5929 34.1133 55.2721 37.6314 55.2721 40.3478C55.2721 42.0398 57.7998 43.4636 63.643 43.4636C70.0504 43.4636 76.2399 40.2137 81.9518 35.6712Z" fill="#2D2D2D"/>
<path d="M105.1 24.1819C105.1 20.1302 111.856 15.542 122.233 15.542C129.12 15.542 134.265 17.5022 138.754 19.3712C144.988 12.5574 149.435 4.36272 156.627 1.2469C158.238 0.579223 160.462 0 162.557 0C165.565 0 168.268 1.20125 168.268 4.85349C168.268 8.50574 166.83 9.66419 165.741 9.66419C165.087 9.66419 164.52 9.17341 164.52 8.50574C164.52 6.54551 167.093 6.05759 167.528 5.52117C167.66 5.34426 167.746 5.0304 167.746 4.71939C167.746 1.42381 165.26 0.399464 162.515 0.399464C160.423 0.399464 158.199 1.02434 156.761 1.69202C149.831 4.94195 148.87 14.0726 143.248 21.1516C145.516 21.9991 147.694 22.5326 150.004 22.5326C151.094 22.5326 152.183 22.4442 153.362 22.1332V23.4257C152.49 23.6026 151.619 23.6939 150.789 23.6939C148.085 23.6939 145.516 22.8465 142.767 21.7337C138.67 26.5872 132.131 30.3279 119.663 30.3279C109.418 30.3279 105.102 27.4346 105.102 24.1819H105.1ZM138.273 19.8619C133.782 17.9474 128.595 16.0756 121.752 16.0756C111.77 16.0756 105.798 20.4383 105.798 24.179C105.798 27.0723 109.286 29.5661 117.174 29.5661C126.939 29.5661 133.215 25.2034 138.273 19.8591V19.8619Z" fill="#2D2D2D"/>
<path d="M145.468 28.3248C145.468 27.2548 146.602 24.7182 154.839 16.1668C156.277 16.1668 157.933 16.0327 158.805 15.9442L158.936 16.2124C156.146 18.3068 146.993 27.0779 146.993 28.6358C146.993 29.2578 147.342 29.4832 147.822 29.4832C148.825 29.4832 150.568 28.5045 151.657 27.7912C153.707 26.4558 156.453 24.5413 159.503 22.4926L159.676 22.8492C156.668 24.8523 154.009 26.7668 151.786 28.1935C150.738 28.8612 148.604 30.0196 147.076 30.0196C146.16 30.0196 145.465 29.5745 145.465 28.3276L145.468 28.3248ZM159.285 12.6486C159.285 11.5786 160.855 9.66406 162.553 9.66406C163.207 9.66406 163.469 9.97507 163.469 10.3774C163.469 11.4474 161.64 13.362 160.07 13.362C159.503 13.362 159.285 13.051 159.285 12.6486Z" fill="#2D2D2D"/>
<path d="M163.514 25.1626C161.118 26.9431 157.366 29.6166 155.582 29.6166C154.492 29.6166 154.057 29.0374 154.057 28.3241C154.057 27.4339 154.755 26.4552 155.889 26.4552C156.325 26.4552 156.543 26.7234 156.543 27.0772C156.543 27.7449 155.802 28.6351 154.668 28.6351H154.45C154.624 29.0802 154.973 29.2571 155.498 29.2571C157.154 29.2571 160.249 27.2541 163.824 24.5805C165.698 20.9739 170.19 17.4558 170.19 16.654C170.19 16.4771 170.145 16.2974 169.84 16.2974C168.315 16.2974 163.039 20.4832 161.687 21.4191L159.246 23.1111L158.942 22.8429L161.601 21.0167C165.218 18.4773 168.793 15.8066 170.276 15.8066C170.885 15.8066 171.106 16.2061 171.106 16.6968C171.106 17.8096 170.757 18.8796 170.276 19.9468C172.368 18.3888 174.592 16.8737 176.728 16.8737C177.904 16.8737 178.516 17.7212 178.516 18.5201C178.516 19.1878 178.08 19.767 177.164 19.767C176.597 19.767 176.248 19.3219 176.248 18.8311C176.248 18.3403 176.552 17.8068 177.206 17.4958C177.119 17.2732 176.857 17.1847 176.552 17.1847C174.505 17.1847 171.843 19.0993 170.014 20.5688C168.575 23.2851 166.089 25.7333 164.782 27.2027C164.129 27.8704 163.866 28.4496 163.866 28.8948C163.866 29.5624 164.564 29.9191 165.74 29.9191C173.282 29.9191 194.294 15.002 209.55 15.002C211.469 15.002 213.298 15.2245 214.999 15.7581L214.391 17.2275C212.343 16.3373 210.075 15.9806 207.676 15.9806C192.898 15.9806 173.282 30.4527 165.26 30.4527C162.207 30.4527 162.469 27.782 163.517 25.1541L163.514 25.1626Z" fill="#2D2D2D"/>
</svg>
